# xmcd CD database file
#
# Track frame offsets:
#	150
#	14932
#	27225
#	51725
#	62295
#	84320
#	100222
#	112450
#	130435
#	148155
#	160535
#	174452
#
# Disc length: 2452 seconds
#
# Revision: 0
# Processed by: cddbd v1.5.1PL0 Copyright (c) Steve Scherf et al.
# Submitted via: CDex 1.51
#
DISCID=ad09920c
DTITLE=内田勘太郎 - Chaki Sings
DYEAR=1900
DGENRE=Blues
TTITLE0=ひき潮
TTITLE1=ムーンリバー
TTITLE2=スターダスト
TTITLE3=青い影
TTITLE4=我が心のジョージア
TTITLE5=クレイジーデイズ
TTITLE6=夏の日の恋
TTITLE7=イフ アイ ハッド ユー
TTITLE8=美らフクギの林から
TTITLE9=霧雨
TTITLE10=谷間のともしび
TTITLE11=家路
EXTD=
EXTT0=
EXTT1=
EXTT2=
EXTT3=
EXTT4=
EXTT5=
EXTT6=
EXTT7=
EXTT8=
EXTT9=
EXTT10=
EXTT11=
PLAYORDER=
